<svg width="75" height="90" viewBox="0 0 75 90" fill="none" xmlns="http://www.w3.org/2000/svg">
<path d="M41.374 88.4336V54.9336C41.374 48.03 46.9705 42.4336 53.874 42.4336H73.124" stroke="#05218E" stroke-width="2" stroke-linecap="round"/>
<path d="M45.874 77.4336V58.9336C45.874 52.03 51.4705 46.4336 58.374 46.4336H68.874" stroke="#05218E" stroke-width="2" stroke-linecap="round"/>
<path d="M49.374 72.4336V62.4336C49.374 55.53 54.9705 49.9336 61.874 49.9336H65.374" stroke="#05218E" stroke-width="2" stroke-linecap="round"/>
<ellipse cx="1.60181" cy="3.34157" rx="1.60181" ry="3.34157" transform="matrix(-0.139281 0.990253 -0.99243 -0.122811 52.1729 45.4707)" fill="#E7C852"/>
<ellipse cx="1.60073" cy="3.34356" rx="1.60073" ry="3.34356" transform="matrix(-0.0903397 0.995911 -0.99683 -0.0795557 56.2803 48.8379)" fill="#E7C852"/>
<ellipse cx="1.60073" cy="3.34356" rx="1.60073" ry="3.34356" transform="matrix(-0.0903397 0.995911 -0.99683 -0.0795557 59.7876 52.834)" fill="#E7C852"/>
<ellipse cx="1.60073" cy="3.34356" rx="1.60073" ry="3.34356" transform="matrix(-0.0903397 0.995911 -0.99683 -0.0795557 64.374 56.7461)" fill="#E7C852"/>
<ellipse cx="1.60181" cy="3.34157" rx="1.60181" ry="3.34157" transform="matrix(-0.975434 0.220291 0.204056 0.978959 57.2681 59.666)" fill="#E7C852"/>
<ellipse cx="1.60073" cy="3.34356" rx="1.60073" ry="3.34356" transform="matrix(-0.9851 0.171981 0.161309 0.986904 53.5742 55.8496)" fill="#E7C852"/>
<ellipse cx="1.60073" cy="3.34356" rx="1.60073" ry="3.34356" transform="matrix(-0.9851 0.171981 0.161309 0.986904 49.3027 52.6836)" fill="#E7C852"/>
<ellipse cx="1.60073" cy="3.34356" rx="1.60073" ry="3.34356" transform="matrix(-0.9851 0.171981 0.161309 0.986904 45.0278 48.4336)" fill="#E7C852"/>
<path d="M33.624 88.4336V54.9336C33.624 48.03 28.0276 42.4336 21.124 42.4336H1.87402" stroke="#05218E" stroke-width="2" stroke-linecap="round"/>
<path d="M29.124 77.4336V58.9336C29.124 52.03 23.5276 46.4336 16.624 46.4336H6.12402" stroke="#05218E" stroke-width="2" stroke-linecap="round"/>
<path d="M25.624 72.4336V62.4336C25.624 55.53 20.0276 49.9336 13.124 49.9336H9.62402" stroke="#05218E" stroke-width="2" stroke-linecap="round"/>
<ellipse cx="1.60181" cy="3.34157" rx="1.60181" ry="3.34157" transform="matrix(0.139281 0.990253 0.99243 -0.122811 22.8252 45.4707)" fill="#E7C852"/>
<ellipse cx="1.60073" cy="3.34356" rx="1.60073" ry="3.34356" transform="matrix(0.0903397 0.995911 0.99683 -0.0795557 18.7178 48.8379)" fill="#E7C852"/>
<ellipse cx="1.60073" cy="3.34356" rx="1.60073" ry="3.34356" transform="matrix(0.0903397 0.995911 0.99683 -0.0795557 15.2104 52.834)" fill="#E7C852"/>
<ellipse cx="1.60073" cy="3.34356" rx="1.60073" ry="3.34356" transform="matrix(0.0903397 0.995911 0.99683 -0.0795557 10.624 56.7461)" fill="#E7C852"/>
<ellipse cx="1.60181" cy="3.34157" rx="1.60181" ry="3.34157" transform="matrix(0.975434 0.220291 -0.204056 0.978959 17.73 59.666)" fill="#E7C852"/>
<ellipse cx="1.60073" cy="3.34356" rx="1.60073" ry="3.34356" transform="matrix(0.9851 0.171981 -0.161309 0.986904 21.4238 55.8496)" fill="#E7C852"/>
<ellipse cx="1.60073" cy="3.34356" rx="1.60073" ry="3.34356" transform="matrix(0.9851 0.171981 -0.161309 0.986904 25.6953 52.6836)" fill="#E7C852"/>
<ellipse cx="1.60073" cy="3.34356" rx="1.60073" ry="3.34356" transform="matrix(0.9851 0.171981 -0.161309 0.986904 29.9702 48.4336)" fill="#E7C852"/>
<path d="M33.874 1.93359V24.4336C33.874 31.3372 28.2776 36.9336 21.374 36.9336H1.87402" stroke="#05218E" stroke-width="2" stroke-linecap="round"/>
<path d="M29.374 6.93359V20.4336C29.374 27.3372 23.7776 32.9336 16.874 32.9336H6.37402" stroke="#05218E" stroke-width="2" stroke-linecap="round"/>
<path d="M25.874 10.9336V16.9336C25.874 23.8372 20.2776 29.4336 13.374 29.4336H9.87402" stroke="#05218E" stroke-width="2" stroke-linecap="round"/>
<ellipse cx="1.60181" cy="3.34157" rx="1.60181" ry="3.34157" transform="matrix(0.139281 -0.990253 0.99243 0.122811 22.8252 33.8965)" fill="#E7C852"/>
<ellipse cx="1.60073" cy="3.34356" rx="1.60073" ry="3.34356" transform="matrix(0.0903397 -0.995911 0.99683 0.0795557 18.7178 30.5293)" fill="#E7C852"/>
<ellipse cx="1.60073" cy="3.34356" rx="1.60073" ry="3.34356" transform="matrix(0.0903397 -0.995911 0.99683 0.0795557 15.2104 26.5332)" fill="#E7C852"/>
<ellipse cx="1.60073" cy="3.34356" rx="1.60073" ry="3.34356" transform="matrix(0.0903397 -0.995911 0.99683 0.0795557 10.624 22.6211)" fill="#E7C852"/>
<ellipse cx="1.60181" cy="3.34157" rx="1.60181" ry="3.34157" transform="matrix(0.975434 -0.220291 -0.204056 -0.978959 17.73 19.7012)" fill="#E7C852"/>
<ellipse cx="1.60073" cy="3.34356" rx="1.60073" ry="3.34356" transform="matrix(0.9851 -0.171981 -0.161309 -0.986904 21.4238 23.5176)" fill="#E7C852"/>
<ellipse cx="1.60073" cy="3.34356" rx="1.60073" ry="3.34356" transform="matrix(0.9851 -0.171981 -0.161309 -0.986904 25.6953 26.6836)" fill="#E7C852"/>
<ellipse cx="1.60073" cy="3.34356" rx="1.60073" ry="3.34356" transform="matrix(0.9851 -0.171981 -0.161309 -0.986904 29.9702 30.9336)" fill="#E7C852"/>
<path d="M41.374 1.93359V24.4336C41.374 31.3372 46.9705 36.9336 53.874 36.9336H73.374" stroke="#05218E" stroke-width="2" stroke-linecap="round"/>
<path d="M45.874 6.93359V20.4336C45.874 27.3372 51.4705 32.9336 58.374 32.9336H68.874" stroke="#05218E" stroke-width="2" stroke-linecap="round"/>
<path d="M49.374 10.9336V16.9336C49.374 23.8372 54.9705 29.4336 61.874 29.4336H65.374" stroke="#05218E" stroke-width="2" stroke-linecap="round"/>
<ellipse cx="1.60181" cy="3.34157" rx="1.60181" ry="3.34157" transform="matrix(-0.139281 -0.990253 -0.99243 0.122811 52.4229 33.8965)" fill="#E7C852"/>
<ellipse cx="1.60073" cy="3.34356" rx="1.60073" ry="3.34356" transform="matrix(-0.0903397 -0.995911 -0.99683 0.0795557 56.5303 30.5293)" fill="#E7C852"/>
<ellipse cx="1.60073" cy="3.34356" rx="1.60073" ry="3.34356" transform="matrix(-0.0903397 -0.995911 -0.99683 0.0795557 60.0376 26.5332)" fill="#E7C852"/>
<ellipse cx="1.60073" cy="3.34356" rx="1.60073" ry="3.34356" transform="matrix(-0.0903397 -0.995911 -0.99683 0.0795557 64.624 22.6211)" fill="#E7C852"/>
<ellipse cx="1.60181" cy="3.34157" rx="1.60181" ry="3.34157" transform="matrix(-0.975434 -0.220291 0.204056 -0.978959 57.5181 19.7012)" fill="#E7C852"/>
<ellipse cx="1.60073" cy="3.34356" rx="1.60073" ry="3.34356" transform="matrix(-0.9851 -0.171981 0.161309 -0.986904 53.8242 23.5176)" fill="#E7C852"/>
<ellipse cx="1.60073" cy="3.34356" rx="1.60073" ry="3.34356" transform="matrix(-0.9851 -0.171981 0.161309 -0.986904 49.5527 26.6836)" fill="#E7C852"/>
<ellipse cx="1.60073" cy="3.34356" rx="1.60073" ry="3.34356" transform="matrix(-0.9851 -0.171981 0.161309 -0.986904 45.2778 30.9336)" fill="#E7C852"/>
</svg>
