<svg width="1801" height="1800" viewBox="0 0 1801 1800" fill="none" xmlns="http://www.w3.org/2000/svg">
<rect width="1800" height="1800" transform="translate(0.0683594)" fill="white"/>
<path d="M960.068 1592V1056C960.068 945.543 1049.61 856 1160.07 856H1468.07" stroke="#05218E" stroke-width="32" stroke-linecap="round"/>
<path d="M1032.07 1416V1120C1032.07 1009.54 1121.61 920 1232.07 920H1400.07" stroke="#05218E" stroke-width="32" stroke-linecap="round"/>
<path d="M1088.07 1336V1176C1088.07 1065.54 1177.61 976 1288.07 976H1344.07" stroke="#05218E" stroke-width="32" stroke-linecap="round"/>
<ellipse cx="25.629" cy="53.4651" rx="25.629" ry="53.4651" transform="matrix(-0.139281 0.990253 -0.99243 -0.122811 1132.85 904.593)" fill="#E7C852"/>
<ellipse cx="25.6117" cy="53.497" rx="25.6117" ry="53.497" transform="matrix(-0.0903397 0.995911 -0.99683 -0.0795557 1198.57 958.471)" fill="#E7C852"/>
<ellipse cx="25.6117" cy="53.497" rx="25.6117" ry="53.497" transform="matrix(-0.0903397 0.995911 -0.99683 -0.0795557 1254.69 1022.41)" fill="#E7C852"/>
<ellipse cx="25.6117" cy="53.497" rx="25.6117" ry="53.497" transform="matrix(-0.0903397 0.995911 -0.99683 -0.0795557 1328.07 1084.99)" fill="#E7C852"/>
<ellipse cx="25.629" cy="53.4651" rx="25.629" ry="53.4651" transform="matrix(-0.975434 0.220291 0.204056 0.978959 1214.37 1131.71)" fill="#E7C852"/>
<ellipse cx="25.6117" cy="53.497" rx="25.6117" ry="53.497" transform="matrix(-0.9851 0.171981 0.161309 0.986904 1155.27 1070.65)" fill="#E7C852"/>
<ellipse cx="25.6117" cy="53.497" rx="25.6117" ry="53.497" transform="matrix(-0.9851 0.171981 0.161309 0.986904 1086.93 1019.99)" fill="#E7C852"/>
<ellipse cx="25.6117" cy="53.497" rx="25.6117" ry="53.497" transform="matrix(-0.9851 0.171981 0.161309 0.986904 1018.53 952)" fill="#E7C852"/>
<path d="M836.068 1592V1056C836.068 945.543 746.525 856 636.068 856H328.068" stroke="#05218E" stroke-width="32" stroke-linecap="round"/>
<path d="M764.068 1416V1120C764.068 1009.54 674.525 920 564.068 920H396.068" stroke="#05218E" stroke-width="32" stroke-linecap="round"/>
<path d="M708.068 1336V1176C708.068 1065.54 618.525 976 508.068 976H452.068" stroke="#05218E" stroke-width="32" stroke-linecap="round"/>
<ellipse cx="25.629" cy="53.4651" rx="25.629" ry="53.4651" transform="matrix(0.139281 0.990253 0.99243 -0.122811 663.287 904.593)" fill="#E7C852"/>
<ellipse cx="25.6117" cy="53.497" rx="25.6117" ry="53.497" transform="matrix(0.0903397 0.995911 0.99683 -0.0795557 597.568 958.471)" fill="#E7C852"/>
<ellipse cx="25.6117" cy="53.497" rx="25.6117" ry="53.497" transform="matrix(0.0903397 0.995911 0.99683 -0.0795557 541.451 1022.41)" fill="#E7C852"/>
<ellipse cx="25.6117" cy="53.497" rx="25.6117" ry="53.497" transform="matrix(0.0903397 0.995911 0.99683 -0.0795557 468.068 1084.99)" fill="#E7C852"/>
<ellipse cx="25.629" cy="53.4651" rx="25.629" ry="53.4651" transform="matrix(0.975434 0.220291 -0.204056 0.978959 581.764 1131.71)" fill="#E7C852"/>
<ellipse cx="25.6117" cy="53.497" rx="25.6117" ry="53.497" transform="matrix(0.9851 0.171981 -0.161309 0.986904 640.865 1070.65)" fill="#E7C852"/>
<ellipse cx="25.6117" cy="53.497" rx="25.6117" ry="53.497" transform="matrix(0.9851 0.171981 -0.161309 0.986904 709.209 1019.99)" fill="#E7C852"/>
<ellipse cx="25.6117" cy="53.497" rx="25.6117" ry="53.497" transform="matrix(0.9851 0.171981 -0.161309 0.986904 777.607 952)" fill="#E7C852"/>
<path d="M840.068 208V568C840.068 678.457 750.525 768 640.068 768H328.068" stroke="#05218E" stroke-width="32" stroke-linecap="round"/>
<path d="M768.068 288V504C768.068 614.457 678.525 704 568.068 704H400.068" stroke="#05218E" stroke-width="32" stroke-linecap="round"/>
<path d="M712.068 352V448C712.068 558.457 622.525 648 512.068 648H456.068" stroke="#05218E" stroke-width="32" stroke-linecap="round"/>
<ellipse cx="25.629" cy="53.4651" rx="25.629" ry="53.4651" transform="matrix(0.139281 -0.990253 0.99243 0.122811 663.287 719.407)" fill="#E7C852"/>
<ellipse cx="25.6117" cy="53.497" rx="25.6117" ry="53.497" transform="matrix(0.0903397 -0.995911 0.99683 0.0795557 597.568 665.529)" fill="#E7C852"/>
<ellipse cx="25.6117" cy="53.497" rx="25.6117" ry="53.497" transform="matrix(0.0903397 -0.995911 0.99683 0.0795557 541.451 601.587)" fill="#E7C852"/>
<ellipse cx="25.6117" cy="53.497" rx="25.6117" ry="53.497" transform="matrix(0.0903397 -0.995911 0.99683 0.0795557 468.068 539.014)" fill="#E7C852"/>
<ellipse cx="25.629" cy="53.4651" rx="25.629" ry="53.4651" transform="matrix(0.975434 -0.220291 -0.204056 -0.978959 581.764 492.286)" fill="#E7C852"/>
<ellipse cx="25.6117" cy="53.497" rx="25.6117" ry="53.497" transform="matrix(0.9851 -0.171981 -0.161309 -0.986904 640.865 553.349)" fill="#E7C852"/>
<ellipse cx="25.6117" cy="53.497" rx="25.6117" ry="53.497" transform="matrix(0.9851 -0.171981 -0.161309 -0.986904 709.209 604.015)" fill="#E7C852"/>
<ellipse cx="25.6117" cy="53.497" rx="25.6117" ry="53.497" transform="matrix(0.9851 -0.171981 -0.161309 -0.986904 777.607 672)" fill="#E7C852"/>
<path d="M960.068 208V568C960.068 678.457 1049.61 768 1160.07 768H1472.07" stroke="#05218E" stroke-width="32" stroke-linecap="round"/>
<path d="M1032.07 288V504C1032.07 614.457 1121.61 704 1232.07 704H1400.07" stroke="#05218E" stroke-width="32" stroke-linecap="round"/>
<path d="M1088.07 352V448C1088.07 558.457 1177.61 648 1288.07 648H1344.07" stroke="#05218E" stroke-width="32" stroke-linecap="round"/>
<ellipse cx="25.629" cy="53.4651" rx="25.629" ry="53.4651" transform="matrix(-0.139281 -0.990253 -0.99243 0.122811 1136.85 719.407)" fill="#E7C852"/>
<ellipse cx="25.6117" cy="53.497" rx="25.6117" ry="53.497" transform="matrix(-0.0903397 -0.995911 -0.99683 0.0795557 1202.57 665.529)" fill="#E7C852"/>
<ellipse cx="25.6117" cy="53.497" rx="25.6117" ry="53.497" transform="matrix(-0.0903397 -0.995911 -0.99683 0.0795557 1258.69 601.587)" fill="#E7C852"/>
<ellipse cx="25.6117" cy="53.497" rx="25.6117" ry="53.497" transform="matrix(-0.0903397 -0.995911 -0.99683 0.0795557 1332.07 539.014)" fill="#E7C852"/>
<ellipse cx="25.629" cy="53.4651" rx="25.629" ry="53.4651" transform="matrix(-0.975434 -0.220291 0.204056 -0.978959 1218.37 492.286)" fill="#E7C852"/>
<ellipse cx="25.6117" cy="53.497" rx="25.6117" ry="53.497" transform="matrix(-0.9851 -0.171981 0.161309 -0.986904 1159.27 553.349)" fill="#E7C852"/>
<ellipse cx="25.6117" cy="53.497" rx="25.6117" ry="53.497" transform="matrix(-0.9851 -0.171981 0.161309 -0.986904 1090.93 604.015)" fill="#E7C852"/>
<ellipse cx="25.6117" cy="53.497" rx="25.6117" ry="53.497" transform="matrix(-0.9851 -0.171981 0.161309 -0.986904 1022.53 672)" fill="#E7C852"/>
</svg>
